<?xml version="1.0" standalone="no"?>
<!DOCTYPE svg PUBLIC "-//W3C//DTD SVG 20010904//EN"
 "http://www.w3.org/TR/2001/REC-SVG-20010904/DTD/svg10.dtd">
<svg version="1.0" xmlns="http://www.w3.org/2000/svg"
 width="1600.000000pt" height="1600.000000pt" viewBox="0 0 1600.000000 1600.000000"
 preserveAspectRatio="xMidYMid meet">
<metadata>
Created by potrace 1.14, written by Peter Selinger 2001-2017
</metadata>
<g transform="translate(0.000000,1600.000000) scale(0.100000,-0.100000)"
fill="#000000" stroke="none">
<path d="M12615 15622 c-88 -12 -252 -36 -365 -51 -113 -15 -212 -31 -220 -34
-8 -3 -37 -8 -65 -11 -210 -24 -322 -38 -335 -43 -28 -11 -35 -12 -255 -38
-77 -9 -165 -20 -195 -26 -57 -10 -354 -54 -610 -89 -80 -10 -161 -24 -180
-29 -19 -5 -64 -12 -100 -16 -102 -10 -135 -22 -148 -50 -19 -41 -14 -64 16
-83 15 -9 52 -45 82 -79 30 -34 60 -62 66 -62 6 -1 17 -12 24 -26 17 -32 58
-40 164 -31 127 10 338 36 376 46 19 5 134 21 255 35 121 14 236 29 255 35 37
10 41 11 255 35 77 8 154 20 172 26 17 5 107 19 200 29 92 11 188 25 213 30
25 5 68 13 95 16 28 3 59 8 70 10 11 2 53 7 93 11 66 5 72 4 73 -13 0 -10 2
-28 4 -39 3 -11 12 -85 21 -165 9 -80 18 -152 21 -160 9 -23 12 -40 18 -93 2
-26 7 -58 11 -71 6 -27 -4 -31 -101 -41 -155 -15 -242 -27 -261 -35 -12 -4
-106 -18 -210 -30 -104 -12 -196 -24 -204 -28 -8 -3 -17 -6 -20 -7 -9 -2 -103
-15 -145 -20 -70 -8 -249 -33 -280 -40 -16 -3 -110 -17 -210 -30 -148 -20
-367 -53 -452 -67 -13 -2 -30 16 -58 59 -22 35 -49 66 -60 69 -27 9 -103 12
-520 19 -198 3 -471 8 -607 10 l-248 4 -25 -23 c-13 -13 -52 -79 -85 -147 -34
-68 -65 -131 -70 -139 -5 -8 -18 -35 -29 -60 -11 -25 -25 -52 -31 -60 -11 -17
-40 -89 -37 -93 1 -1 -8 -15 -19 -32 -12 -16 -29 -51 -39 -77 -10 -26 -24 -53
-31 -59 -8 -6 -14 -17 -14 -23 0 -7 -17 -48 -39 -91 -37 -78 -114 -238 -181
-380 -19 -38 -41 -88 -50 -110 -32 -79 -93 -205 -97 -201 -2 2 1 34 7 72 6 38
14 87 17 109 3 22 9 60 15 85 9 43 42 228 53 300 3 19 9 46 14 60 6 14 20 86
32 160 11 74 25 140 29 145 5 6 11 35 15 65 9 77 -12 96 -115 104 -101 8 -178
16 -220 22 -19 3 -48 8 -65 10 -41 5 -326 34 -400 40 -33 3 -71 7 -85 10 -22
5 -194 24 -360 39 -95 8 -164 16 -190 21 -28 6 -153 19 -273 30 -93 8 -111 -3
-122 -73 -4 -25 -10 -53 -15 -62 -7 -14 -29 -140 -45 -261 -3 -19 -9 -51 -15
-70 -9 -32 -37 -257 -46 -373 -4 -54 -28 -105 -103 -227 -29 -47 -62 -101 -73
-120 -10 -19 -34 -60 -53 -90 -18 -30 -45 -77 -60 -105 -62 -120 -74 -139 -74
-123 -1 9 3 19 8 22 4 3 12 34 15 68 4 35 14 99 21 143 8 44 17 100 20 125 4
24 10 51 14 60 5 8 11 35 14 60 4 25 9 59 12 75 3 17 10 59 16 95 6 36 14 74
19 85 4 11 16 70 25 130 9 61 22 133 30 160 7 28 23 106 35 173 12 68 25 134
29 145 16 42 53 288 47 311 -3 13 -13 27 -23 30 -22 9 -581 18 -1214 20 -470
1 -508 0 -526 -16 -14 -13 -23 -43 -32 -100 -7 -46 -16 -87 -21 -93 -4 -5 -15
-61 -25 -124 -9 -63 -23 -138 -30 -165 -7 -28 -25 -123 -40 -211 -14 -88 -30
-173 -35 -190 -5 -16 -21 -97 -35 -180 -14 -82 -34 -199 -45 -260 -11 -60 -22
-132 -26 -160 -3 -27 -9 -54 -13 -60 -5 -5 -16 -68 -25 -140 -10 -71 -24 -157
-32 -190 -7 -33 -23 -123 -34 -200 -26 -181 -25 -173 -33 -181 -4 -4 -7 -20
-7 -35 0 -16 -9 -92 -20 -171 -30 -209 -30 -210 -35 -218 -2 -4 -12 -65 -20
-136 -9 -71 -18 -140 -20 -154 -2 -14 -7 -50 -10 -80 -3 -30 -10 -68 -15 -85
-5 -16 -14 -77 -20 -135 -7 -58 -13 -116 -16 -130 -2 -14 -6 -47 -10 -75 -9
-76 -10 -79 -16 -95 -3 -8 -13 -85 -22 -170 -25 -229 -26 -242 -32 -275 -3
-16 -11 -86 -19 -155 -8 -69 -17 -150 -20 -180 -3 -30 -8 -80 -11 -110 -3 -30
-8 -66 -11 -80 -4 -22 -19 -154 -37 -355 -13 -138 -22 -222 -31 -290 -3 -22
-8 -58 -11 -80 l-5 -40 -67 -1 c-138 -2 -490 -32 -517 -44 -11 -5 -40 -11 -65
-14 -163 -20 -277 -38 -292 -47 -10 -5 -23 -9 -30 -9 -7 0 -29 -4 -48 -10 -41
-11 -55 -38 -65 -119 -4 -30 -10 -61 -15 -70 -7 -13 -25 -129 -47 -301 -2 -19
-8 -44 -13 -55 -5 -11 -18 -89 -30 -172 -11 -84 -25 -165 -30 -180 -5 -16 -14
-64 -20 -108 -5 -44 -16 -118 -24 -165 -78 -449 -84 -512 -56 -531 17 -11 110
-3 125 12 5 5 14 9 21 9 15 0 -2 -59 -45 -158 -17 -39 -31 -75 -31 -81 0 -6
-13 -39 -29 -74 -16 -35 -35 -84 -41 -108 -7 -24 -17 -51 -24 -59 -7 -8 -18
-35 -25 -60 -7 -25 -23 -70 -36 -100 -13 -30 -33 -82 -46 -115 l-23 -60 -12
65 c-6 36 -14 81 -18 100 -4 19 -9 51 -11 70 -16 127 -46 349 -58 425 -9 50
-21 144 -28 210 -6 66 -15 125 -19 130 -4 6 -17 93 -29 195 -12 102 -26 201
-31 220 -10 40 -25 142 -40 285 -6 55 -15 116 -20 135 -11 39 -12 48 -35 240
-18 151 -30 233 -39 270 -4 14 -16 104 -27 200 -11 96 -23 182 -26 190 -10 24
-11 36 -33 225 -11 99 -25 193 -30 209 -5 16 -19 110 -30 210 -11 100 -25 195
-30 211 -5 17 -18 107 -29 200 -12 94 -25 190 -31 215 -14 63 -16 81 -40 290
-12 102 -25 194 -30 205 -5 11 -18 106 -30 210 -12 105 -24 197 -27 205 -10
25 -11 37 -34 230 -12 102 -25 194 -30 205 -4 11 -18 106 -30 210 -11 105 -25
199 -29 210 -8 19 -13 48 -25 150 -3 22 -9 75 -15 118 -16 123 -23 113 83 126
50 6 115 14 142 17 28 3 64 9 80 14 33 10 59 13 250 35 72 9 148 20 170 25 22
5 60 12 85 16 286 38 538 74 770 110 25 4 55 14 68 22 22 14 106 173 118 225
3 15 10 30 15 33 16 10 9 64 -11 84 -11 11 -32 20 -48 20 -35 -1 -521 -64
-692 -90 -211 -32 -276 -42 -375 -55 -60 -7 -135 -18 -165 -24 -63 -11 -89
-15 -290 -37 -80 -8 -152 -19 -161 -24 -8 -4 -104 -18 -212 -31 -175 -21 -199
-26 -222 -46 -21 -20 -29 -41 -27 -73 1 -20 15 -125 22 -170 5 -30 12 -91 16
-135 3 -44 10 -84 14 -90 5 -5 11 -39 15 -75 4 -36 8 -72 10 -80 1 -8 8 -64
15 -125 6 -60 15 -123 20 -140 5 -16 12 -55 15 -85 4 -30 10 -80 15 -110 5
-30 12 -89 16 -130 4 -41 10 -82 14 -90 5 -9 11 -44 15 -79 3 -35 8 -78 11
-95 2 -17 11 -94 20 -171 9 -77 20 -149 24 -160 5 -11 11 -45 15 -75 18 -153
43 -336 50 -365 2 -11 14 -99 26 -195 11 -96 25 -184 29 -195 9 -23 50 -335
50 -382 0 -17 4 -34 9 -38 6 -3 9 -13 9 -23 0 -9 6 -66 15 -127 8 -60 15 -117
16 -125 2 -42 13 -127 18 -140 3 -8 8 -26 10 -40 2 -14 8 -54 13 -90 5 -36 17
-128 25 -205 8 -77 20 -156 26 -175 5 -19 21 -118 34 -220 13 -102 26 -196 29
-210 4 -14 17 -111 30 -217 13 -106 26 -196 29 -200 3 -4 14 -87 26 -183 11
-96 25 -195 31 -220 11 -51 14 -75 41 -280 10 -80 27 -203 38 -275 29 -194 49
-338 78 -565 14 -113 29 -214 34 -225 4 -11 17 -103 29 -205 12 -102 25 -198
30 -214 5 -16 15 -75 21 -131 11 -88 10 -105 -4 -135 -19 -41 -57 -157 -57
-175 0 -8 -4 -15 -9 -17 -5 -1 -21 -41 -35 -88 -14 -47 -39 -125 -56 -174 -16
-49 -30 -93 -30 -98 0 -6 -6 -24 -14 -41 -8 -18 -37 -104 -65 -192 -28 -88
-55 -169 -60 -180 -5 -11 -21 -58 -34 -105 -45 -155 -78 -262 -87 -278 -4 -10
-13 -35 -18 -57 -6 -22 -16 -60 -23 -85 l-12 -45 -13 95 c-7 52 -13 113 -13
135 -1 23 -5 45 -10 50 -5 6 -11 30 -14 55 -3 25 -13 108 -22 185 -9 77 -20
156 -26 175 -5 19 -18 105 -28 190 -11 85 -23 182 -27 215 -8 60 -10 73 -14
78 -4 5 -11 52 -30 217 -12 96 -25 189 -30 205 -4 17 -8 37 -9 45 -1 27 -49
374 -55 400 -3 14 -15 102 -26 195 -11 94 -25 186 -30 205 -5 19 -11 58 -15
85 -8 72 -41 309 -64 465 -11 74 -27 187 -36 250 -8 63 -28 207 -44 320 -15
113 -30 212 -34 220 -3 8 -9 44 -12 80 -4 36 -9 74 -10 85 -2 11 -8 67 -15
125 -6 58 -14 112 -17 120 -12 31 -53 341 -53 396 0 16 -4 34 -9 40 -5 5 -11
27 -14 49 -2 22 -12 108 -22 190 -9 83 -19 157 -22 165 -10 24 -11 37 -33 220
-11 96 -25 189 -31 207 -5 18 -12 56 -15 85 -3 29 -7 64 -9 78 -2 14 -11 83
-19 154 -9 71 -21 147 -26 170 -11 55 -16 85 -35 256 -9 80 -20 156 -25 170
-5 14 -12 45 -14 70 -13 129 -39 337 -44 350 -8 21 -7 19 -16 85 -9 66 -10 71
-29 231 -8 61 -17 115 -20 121 -3 5 -9 36 -12 69 -4 32 -9 73 -11 89 -3 17 -9
75 -15 130 -6 55 -13 107 -16 115 -10 25 -34 195 -53 365 -6 55 -15 111 -20
125 -5 14 -11 48 -14 75 -19 172 -39 332 -43 345 -12 30 -15 58 -39 270 -8 80
-20 154 -24 165 -5 11 -11 40 -14 65 -2 25 -10 87 -16 138 -7 51 -11 94 -9 96
2 2 29 7 59 11 254 29 310 37 345 45 47 11 67 14 245 35 74 8 151 19 170 24
19 5 60 13 90 17 98 12 314 42 350 48 54 10 91 15 145 22 95 11 330 43 425 58
52 9 142 20 200 26 58 6 112 14 120 17 8 3 26 8 40 10 14 2 54 8 90 13 36 5
112 14 170 20 58 6 114 15 125 20 11 5 101 19 200 30 99 12 183 24 187 26 3 2
66 13 140 24 168 25 284 53 306 73 10 9 24 33 31 54 8 21 17 40 21 43 12 9 62
143 65 176 6 58 -14 65 -146 53 -63 -5 -181 -19 -264 -30 -82 -11 -177 -22
-210 -25 -33 -3 -69 -9 -80 -14 -11 -5 -108 -18 -215 -30 -107 -12 -204 -26
-215 -31 -11 -4 -40 -10 -65 -13 -169 -17 -338 -39 -355 -46 -11 -5 -119 -20
-240 -35 -121 -14 -249 -32 -285 -40 -36 -8 -135 -21 -220 -30 -85 -9 -162
-19 -170 -23 -19 -7 -17 -7 -210 -31 -91 -11 -196 -27 -235 -36 -38 -8 -95
-17 -125 -20 -144 -13 -257 -28 -275 -35 -11 -5 -42 -12 -70 -15 -27 -3 -66
-7 -85 -10 -19 -2 -80 -9 -135 -15 -55 -6 -107 -14 -115 -16 -20 -7 -14 -6
-104 -20 -54 -9 -86 -19 -100 -33 -20 -21 -20 -21 -2 -188 10 -93 22 -177 26
-188 8 -21 10 -33 35 -235 8 -69 22 -161 30 -205 8 -44 16 -98 18 -120 15
-135 40 -332 44 -345 11 -28 35 -208 49 -355 4 -38 10 -74 14 -80 4 -5 17 -98
30 -205 12 -107 25 -202 28 -210 8 -21 9 -26 32 -220 12 -96 24 -182 27 -190
9 -24 11 -35 34 -225 11 -99 24 -187 27 -195 8 -22 11 -42 42 -280 15 -118 30
-226 33 -240 8 -36 13 -76 32 -240 9 -80 19 -152 22 -160 4 -8 8 -22 9 -30 4
-16 5 -24 33 -240 11 -80 22 -161 26 -180 4 -19 17 -114 30 -210 13 -96 25
-185 28 -196 7 -28 14 -76 22 -144 12 -104 33 -255 38 -276 9 -34 14 -77 37
-274 12 -102 24 -192 27 -200 11 -27 13 -43 38 -270 9 -80 20 -154 25 -165 9
-23 25 -133 40 -290 7 -60 15 -119 20 -130 5 -11 11 -38 13 -60 18 -168 39
-332 44 -345 3 -8 8 -26 10 -40 2 -14 7 -52 12 -85 5 -33 15 -109 21 -170 7
-60 16 -119 21 -130 5 -11 10 -42 13 -70 9 -98 37 -312 56 -420 10 -60 26
-177 35 -260 9 -82 19 -157 22 -165 8 -19 8 -17 32 -215 12 -93 26 -188 31
-210 6 -22 22 -125 35 -230 14 -104 29 -210 34 -235 5 -25 17 -115 26 -200 10
-85 20 -162 23 -170 12 -33 27 -148 48 -350 4 -36 10 -72 15 -81 4 -8 20 -118
34 -245 15 -126 29 -236 32 -244 11 -28 19 -81 39 -260 9 -80 20 -154 24 -165
5 -11 20 -108 34 -215 13 -107 27 -206 30 -220 7 -30 32 -217 42 -315 3 -38 9
-74 12 -80 8 -13 7 -8 33 -220 11 -99 25 -189 29 -200 5 -11 12 -49 16 -85 4
-36 8 -76 10 -90 1 -14 10 -88 19 -165 10 -77 20 -147 23 -155 3 -8 7 -28 9
-45 11 -81 35 -110 93 -108 42 1 310 35 340 43 19 5 58 12 85 15 28 4 61 8 75
11 14 2 88 11 165 19 77 9 147 18 155 22 8 3 26 8 40 10 14 2 54 8 90 13 35 5
65 8 66 7 6 -5 15 -68 29 -197 8 -74 20 -151 25 -170 12 -42 15 -62 35 -245 9
-77 20 -156 25 -175 5 -19 14 -61 20 -92 11 -54 13 -58 46 -64 20 -4 40 -2 47
5 7 6 58 15 113 22 54 6 106 13 114 16 27 10 207 36 345 49 39 3 75 9 80 12
11 7 10 7 80 16 188 23 352 45 365 50 21 7 61 13 230 31 80 9 154 20 165 25
11 5 27 8 35 8 31 1 417 52 465 62 28 6 131 22 230 35 99 13 190 26 201 28 33
8 75 14 239 32 83 9 157 19 165 22 31 12 143 28 335 48 33 4 71 10 85 15 27 9
31 10 245 34 77 9 156 21 175 26 19 5 55 12 80 15 218 26 369 46 390 49 104
19 222 36 320 46 63 6 122 14 130 18 8 3 22 6 31 7 8 1 31 5 50 8 19 4 54 9
79 12 100 12 246 33 266 38 11 3 103 15 205 27 101 12 193 26 204 30 11 5 103
18 205 30 157 18 208 26 240 35 17 5 131 20 305 40 72 8 144 19 160 24 17 5
57 12 90 16 33 3 87 10 120 15 33 5 94 12 135 15 41 4 80 11 85 15 6 4 37 10
70 14 91 10 343 44 403 55 29 6 119 17 200 26 81 9 156 20 167 25 11 5 40 11
65 14 25 3 63 8 85 10 22 3 85 10 140 16 55 6 111 15 125 20 14 5 43 11 65 13
148 16 413 50 425 55 22 7 38 10 100 18 30 3 62 8 70 9 8 2 67 8 130 15 63 6
124 15 135 20 11 5 99 19 195 30 96 11 195 25 220 30 62 13 74 15 245 35 83 9
159 21 170 25 11 5 106 19 210 30 105 12 199 26 210 30 11 5 119 20 240 35
121 14 236 30 255 35 32 9 192 30 350 46 36 4 70 9 75 13 6 3 100 18 210 33
401 53 630 86 645 92 8 3 94 15 190 26 96 11 193 25 215 31 22 5 58 12 80 14
152 16 165 18 184 39 11 12 21 35 22 51 3 34 -20 252 -29 275 -7 20 -10 36
-17 94 -4 27 -8 57 -10 66 -2 9 -9 70 -16 136 -6 65 -15 124 -19 129 -4 6 -11
37 -14 70 -4 33 -9 71 -11 85 -2 14 -7 50 -10 80 -8 80 -32 251 -38 276 -7 27
-13 67 -26 179 -15 118 -26 199 -45 315 -9 52 -22 147 -30 210 -7 63 -16 126
-20 140 -7 28 -12 67 -41 290 -8 63 -22 156 -30 205 -8 50 -19 137 -25 195 -6
58 -15 116 -20 130 -5 14 -18 104 -30 200 -18 152 -25 201 -44 305 -2 11 -11
81 -20 155 -10 74 -21 162 -27 195 -15 89 -64 434 -93 650 -14 105 -30 208
-36 230 -5 22 -14 83 -20 135 -6 52 -17 124 -25 160 -8 36 -17 88 -20 115 -13
98 -59 111 -133 38 -146 -144 -174 -203 -167 -348 7 -147 16 -258 21 -266 2
-5 13 -81 23 -171 11 -90 22 -170 25 -178 3 -8 19 -118 36 -245 17 -126 37
-273 45 -325 21 -142 47 -352 46 -379 -1 -13 3 -29 8 -35 8 -12 22 -105 42
-296 7 -63 15 -119 19 -125 4 -5 17 -98 30 -205 12 -107 26 -204 30 -215 9
-23 25 -135 40 -290 7 -60 15 -119 20 -130 5 -11 11 -41 15 -67 15 -135 41
-324 54 -403 6 -33 20 -139 31 -235 11 -96 24 -191 30 -210 5 -19 12 -55 15
-80 3 -25 14 -110 24 -190 11 -80 22 -156 25 -170 11 -47 15 -75 21 -135 3
-33 8 -70 11 -82 6 -21 3 -23 -28 -23 -19 0 -38 -3 -42 -7 -3 -4 -14 -8 -24
-9 -38 -6 -114 -16 -252 -35 -80 -10 -172 -23 -205 -29 -80 -14 -101 -17 -225
-30 -58 -7 -116 -16 -130 -20 -14 -5 -50 -12 -80 -15 -30 -4 -66 -8 -80 -10
-14 -2 -90 -11 -170 -20 -80 -9 -154 -20 -165 -25 -11 -4 -105 -18 -210 -30
-104 -12 -197 -24 -205 -27 -8 -3 -22 -7 -30 -9 -16 -3 -23 -4 -235 -29 -71
-9 -146 -20 -165 -25 -42 -11 -55 -13 -253 -35 -83 -9 -161 -21 -172 -25 -22
-10 -35 -12 -240 -35 -77 -8 -153 -20 -170 -25 -16 -5 -52 -12 -80 -15 -27 -3
-115 -14 -195 -26 -80 -11 -158 -20 -175 -20 -16 0 -37 -3 -45 -6 -28 -11 -47
-14 -250 -38 -74 -8 -153 -20 -175 -25 -53 -13 -63 -15 -245 -35 -85 -9 -164
-21 -175 -26 -11 -4 -108 -19 -215 -33 -107 -13 -206 -26 -220 -29 -14 -3 -47
-8 -73 -12 -27 -4 -56 -8 -65 -10 -10 -1 -66 -8 -127 -14 -60 -6 -126 -16
-145 -22 -45 -12 -405 -60 -448 -59 -17 0 -40 -4 -50 -9 -9 -5 -37 -11 -62
-14 -174 -20 -311 -39 -345 -47 -22 -5 -60 -12 -85 -15 -25 -2 -94 -11 -155
-19 -60 -8 -112 -13 -114 -10 -3 3 2 19 11 37 9 18 26 68 38 112 12 44 27 93
35 110 7 16 34 98 61 180 26 83 52 155 56 162 5 6 30 14 56 16 42 5 124 17
207 31 17 2 93 12 170 20 77 9 154 21 170 26 17 5 53 11 80 15 132 15 353 44
375 49 24 6 138 13 330 21 52 2 147 6 210 10 233 13 717 25 1161 29 250 2 464
6 476 10 25 8 54 67 83 166 12 41 26 80 31 86 5 6 67 17 137 24 70 7 132 16
137 20 6 4 36 10 68 14 32 3 86 10 120 15 34 5 98 13 142 17 44 3 85 9 90 12
15 10 31 12 250 37 83 9 159 21 170 25 21 9 32 11 240 35 125 15 206 27 270
39 17 4 113 17 215 31 231 31 250 34 277 47 23 11 42 51 38 78 -1 8 -10 83
-20 165 -9 83 -21 164 -26 180 -5 17 -11 53 -14 80 -2 28 -6 59 -9 70 -2 11
-9 72 -16 135 -6 63 -16 124 -21 135 -4 11 -20 116 -34 234 -15 118 -28 218
-30 222 -5 8 -10 42 -35 249 -11 91 -23 174 -26 185 -3 11 -19 112 -35 225
-16 113 -33 234 -39 270 -6 36 -15 92 -20 125 -32 196 -43 216 -108 197 -21
-7 -49 -23 -62 -37 -13 -14 -29 -25 -36 -25 -7 0 -14 -3 -16 -7 -3 -8 -47 -45
-91 -77 -53 -37 -52 -88 4 -461 6 -38 19 -137 30 -220 10 -82 21 -163 23 -180
3 -16 18 -127 34 -245 17 -118 33 -226 36 -240 7 -28 8 -40 36 -255 11 -82 24
-170 29 -195 5 -25 12 -72 16 -105 4 -33 11 -89 15 -125 4 -36 7 -66 6 -66 -1
-2 -68 -10 -236 -29 -74 -9 -148 -20 -163 -25 -15 -5 -110 -19 -210 -30 -100
-12 -195 -25 -212 -30 -16 -5 -52 -12 -80 -15 -152 -19 -361 -48 -519 -70 -98
-15 -180 -24 -183 -22 -5 6 24 123 42 162 7 17 23 64 35 105 12 41 25 80 30
85 4 6 17 45 29 88 12 44 27 91 35 105 7 15 24 68 36 118 23 87 23 93 7 118
l-17 26 -438 -1 c-391 -1 -888 -11 -1029 -22 -37 -3 -50 -1 -45 7 5 6 17 40
27 76 10 36 24 72 31 80 6 8 15 25 18 38 4 12 10 22 14 23 19 3 65 7 147 14
50 4 108 9 130 13 22 3 273 6 559 7 l519 1 23 29 c13 16 28 51 34 78 6 27 21
77 34 111 13 33 32 88 41 121 9 33 22 74 29 90 8 17 35 98 61 180 26 83 53
164 60 180 8 17 21 57 30 90 9 33 22 74 30 90 8 17 23 64 35 105 11 41 25 84
30 95 17 38 71 210 77 242 4 26 1 34 -23 49 -25 17 -57 19 -418 18 -331 0
-668 -8 -869 -18 -54 -3 -52 -11 -15 94 10 30 24 69 30 86 l10 31 97 7 c53 3
128 6 167 6 39 0 74 3 77 7 4 3 44 7 89 9 310 9 581 15 822 19 326 4 309 -2
351 124 14 40 32 87 40 105 15 33 50 126 90 238 13 38 27 74 32 80 7 13 38 98
93 255 16 45 34 90 39 100 11 18 38 89 86 225 13 38 27 74 32 80 14 25 65 173
70 208 5 41 -17 69 -58 71 -27 2 -209 -9 -279 -15 -25 -3 -108 -8 -185 -11
-163 -8 -456 -24 -535 -30 -30 -2 -125 -6 -210 -10 -85 -3 -191 -8 -235 -10
-44 -2 -201 -6 -350 -10 -148 -3 -283 -8 -300 -10 -16 -2 -145 -5 -285 -7
l-255 -2 1 44 c1 54 15 289 19 345 7 72 24 318 30 435 4 63 8 135 11 160 2 25
7 83 10 130 3 47 7 101 10 120 2 19 10 118 18 220 8 102 17 214 20 250 4 36 9
94 12 129 3 35 8 80 10 100 3 20 11 108 19 196 8 88 16 180 19 205 3 25 8 79
12 119 3 41 8 83 11 95 3 11 14 104 24 206 10 102 20 203 23 225 3 22 8 67 12
100 3 33 8 69 11 80 5 20 17 109 29 220 3 33 7 67 9 75 1 8 6 44 11 80 8 70 8
67 16 90 3 8 11 65 18 125 7 61 14 119 16 130 2 11 6 42 9 70 3 27 10 66 15
85 6 19 19 103 30 185 12 83 25 164 30 180 5 17 19 93 30 170 12 77 25 149 29
160 5 11 21 97 36 190 15 94 31 174 36 180 24 24 -2 74 -87 168 -14 16 -30 39
-36 53 -6 13 -17 24 -23 24 -6 0 -17 12 -24 26 -6 15 -23 35 -36 46 -14 11
-25 25 -25 31 -1 21 -48 47 -102 57 -29 4 -222 11 -428 15 -206 3 -458 8 -560
11 -102 4 -246 7 -320 9 -74 1 -140 3 -147 4 -9 1 96 222 176 371 5 8 19 35
32 60 12 25 36 72 53 104 17 32 41 80 54 105 12 25 27 53 32 61 6 8 17 31 25
50 9 19 22 46 30 60 9 14 27 50 42 80 14 30 29 57 32 60 3 3 33 58 66 124 33
65 74 144 92 175 17 31 38 71 47 89 8 17 16 32 18 33 2 0 53 6 113 14 61 8
157 21 215 30 58 8 173 24 255 35 305 41 570 78 570 80 0 3 46 10 235 35 96
13 190 26 208 29 57 10 96 16 153 22 68 7 63 16 79 -146 7 -63 15 -122 18
-130 9 -25 7 -12 43 -280 11 -80 21 -158 23 -175 2 -16 6 -41 9 -54 4 -13 9
-46 12 -75 14 -114 43 -322 48 -345 4 -13 9 -49 13 -80 10 -92 41 -314 47
-337 3 -12 8 -43 11 -70 4 -27 8 -65 11 -84 2 -19 9 -80 16 -135 6 -55 13
-107 16 -115 12 -30 14 -47 38 -250 8 -74 20 -151 26 -170 5 -19 21 -118 34
-220 13 -102 28 -205 34 -230 6 -25 10 -63 11 -86 0 -26 6 -46 18 -56 34 -29
89 -55 138 -66 27 -5 75 -16 106 -23 51 -11 60 -10 84 6 l26 17 -7 101 c-4 56
-11 124 -16 152 -5 27 -23 165 -40 305 -17 140 -35 264 -40 275 -5 11 -11 43
-13 70 -12 129 -38 323 -46 350 -5 17 -12 55 -15 85 -3 30 -8 66 -10 80 -1 14
-8 72 -15 130 -7 58 -15 112 -18 120 -9 25 -13 55 -28 180 -2 19 -8 67 -13
105 -6 39 -13 99 -17 135 -3 36 -9 70 -12 75 -8 12 -7 5 -16 90 -5 39 -10 79
-12 89 -2 11 -8 67 -15 125 -6 58 -14 115 -19 126 -5 11 -9 27 -9 35 -1 37
-50 390 -55 398 -3 5 -8 39 -12 74 l-6 65 39 6 c21 3 73 9 116 13 43 4 80 11
83 15 3 5 16 6 29 3 13 -3 30 -2 37 2 14 9 12 9 83 18 91 11 129 16 208 26
118 15 121 15 135 -22 6 -18 14 -53 16 -78 27 -248 38 -337 44 -350 3 -8 7
-22 8 -30 9 -53 34 -247 40 -310 3 -41 10 -79 14 -85 4 -5 10 -37 14 -70 3
-33 8 -69 10 -81 2 -11 10 -74 17 -140 6 -65 15 -123 19 -129 4 -5 11 -39 15
-75 5 -36 9 -74 10 -85 2 -11 8 -65 14 -120 7 -55 16 -116 22 -135 5 -19 11
-53 13 -75 7 -61 36 -286 42 -320 3 -16 5 -41 5 -55 0 -14 3 -32 6 -40 8 -18
7 -11 32 -205 11 -88 25 -180 31 -205 6 -25 19 -112 30 -195 23 -175 56 -381
65 -404 4 -9 11 -42 15 -75 9 -63 28 -91 66 -100 13 -4 24 -11 24 -16 0 -6 5
-10 11 -10 6 0 25 -6 42 -14 47 -22 107 -36 149 -36 29 0 41 6 55 26 16 25 15
37 -7 238 -26 236 -34 298 -49 372 -5 28 -17 118 -25 200 -9 82 -21 169 -27
194 -12 53 -14 61 -44 295 -13 99 -26 194 -29 210 -4 17 -17 111 -30 210 -13
99 -27 191 -30 205 -4 14 -15 104 -26 200 -12 96 -25 190 -31 208 -6 18 -12
52 -14 75 -3 23 -7 60 -9 82 -3 22 -12 93 -20 157 -8 65 -17 121 -20 126 -3 5
-8 28 -11 53 -15 117 -48 353 -60 434 -7 50 -21 158 -30 240 -9 83 -20 157
-25 166 -4 8 -11 47 -15 85 -4 38 -14 80 -22 93 -16 25 -10 25 -148 6 -16 -2
-91 -11 -165 -20 -74 -9 -153 -20 -175 -25 -48 -11 -61 -13 -290 -40 -99 -12
-189 -25 -200 -30 -11 -5 -41 -11 -67 -13 -46 -4 -48 -3 -49 22 -1 14 -3 35
-4 46 -2 11 -8 63 -15 115 -6 52 -15 111 -20 130 -5 19 -21 127 -35 240 -14
113 -30 222 -36 242 -5 20 -8 40 -7 45 1 4 -1 22 -4 39 -5 23 -14 34 -35 40
-42 12 -46 12 -218 -14z m-2406 -1447 c139 -2 256 -6 259 -9 3 -3 -2 -6 -11
-6 -23 0 -33 -58 -14 -78 14 -14 11 -24 -30 -101 -26 -47 -55 -104 -66 -126
-11 -22 -23 -42 -26 -45 -4 -3 -13 -21 -21 -40 -8 -19 -22 -48 -32 -65 -10
-16 -29 -55 -43 -85 -14 -30 -29 -62 -35 -70 -6 -8 -20 -35 -31 -60 -11 -25
-26 -52 -33 -60 -7 -8 -21 -35 -31 -60 -11 -25 -27 -56 -37 -69 -10 -13 -18
-31 -18 -39 0 -8 -11 -30 -25 -48 -14 -18 -25 -36 -25 -39 0 -11 -32 -78 -50
-105 -9 -14 -25 -46 -35 -72 -10 -27 -21 -48 -25 -48 -4 0 -18 -27 -30 -60
-12 -33 -26 -62 -30 -65 -4 -3 -103 -195 -219 -427 -117 -233 -216 -430 -222
-438 -5 -8 -18 -35 -29 -60 -11 -25 -24 -52 -29 -60 -10 -17 -85 -172 -86
-180 -2 -10 -30 -65 -35 -70 -3 -3 -30 -57 -60 -120 -30 -63 -60 -122 -66
-130 -6 -8 -18 -36 -28 -62 -9 -25 -24 -52 -32 -58 -7 -7 -14 -17 -14 -23 0
-5 -19 -49 -41 -96 -64 -133 -129 -264 -139 -281 -5 -8 -38 -76 -73 -150 -36
-74 -95 -198 -132 -275 -37 -77 -74 -153 -81 -170 -8 -16 -18 -37 -24 -45 -9
-16 -81 -166 -99 -210 -6 -14 -15 -32 -21 -40 -5 -8 -26 -51 -46 -95 -32 -70
-72 -153 -162 -333 -44 -86 -34 -83 -221 -76 -143 5 -461 -6 -556 -19 -16 -2
-61 -7 -100 -11 -38 -4 -81 -9 -95 -11 -14 -2 -74 -9 -135 -15 -60 -6 -119
-15 -130 -20 -20 -8 -198 -40 -225 -40 -15 0 -11 118 16 535 3 55 7 118 9 140
1 22 5 60 9 85 3 25 11 126 16 225 6 99 12 207 15 240 2 33 7 108 11 167 l6
106 -26 17 c-16 11 -35 15 -50 11 -25 -6 -70 -64 -107 -139 -11 -23 -33 -64
-50 -92 -16 -27 -41 -72 -55 -100 -15 -27 -29 -52 -33 -55 -3 -3 -19 -31 -36
-64 -43 -84 -128 -241 -192 -355 -17 -31 -43 -78 -58 -106 -14 -27 -41 -77
-60 -110 -19 -33 -46 -85 -61 -115 -14 -30 -29 -57 -33 -60 -4 -3 -19 -30 -34
-60 -15 -30 -45 -86 -67 -125 -22 -38 -47 -85 -56 -104 -8 -18 -20 -38 -25
-45 -5 -6 -18 -27 -28 -46 -21 -40 -6 -38 -221 -21 -353 30 -787 32 -1078 5
l-52 -4 0 42 c0 24 5 95 10 158 13 142 17 186 24 275 3 39 10 95 16 125 5 30
14 109 20 175 18 189 29 296 37 330 2 11 13 97 23 190 19 158 26 209 35 260 2
11 13 90 24 175 11 85 23 170 27 190 3 19 7 44 9 55 1 11 4 27 7 35 3 8 13 76
22 150 23 187 29 225 39 250 3 8 15 89 26 180 35 273 34 264 44 290 4 13 22
132 32 220 8 72 18 127 25 140 4 8 13 60 20 115 6 55 18 132 26 170 8 39 19
97 24 130 6 33 15 85 20 115 5 30 12 73 15 95 3 22 10 51 15 65 5 14 16 73 25
131 21 143 24 159 35 194 5 17 19 91 30 165 12 74 25 144 30 155 5 11 19 76
30 145 30 183 31 184 35 198 4 10 80 11 387 7 211 -4 445 -7 521 -8 156 -1
146 8 121 -97 -14 -61 -48 -227 -60 -295 -2 -16 -9 -43 -14 -60 -6 -16 -19
-88 -31 -159 -11 -71 -24 -136 -29 -145 -5 -9 -16 -66 -25 -127 -8 -60 -17
-121 -20 -134 -3 -13 -7 -42 -10 -65 -3 -22 -10 -51 -15 -65 -5 -14 -16 -77
-24 -140 -22 -153 -24 -169 -36 -210 -5 -19 -16 -89 -25 -155 -25 -203 -28
-220 -38 -245 -3 -8 -10 -60 -16 -115 -6 -55 -13 -113 -15 -130 -2 -16 -7 -57
-10 -89 -4 -33 -11 -78 -16 -100 -8 -35 -18 -121 -35 -306 -9 -98 -17 -178
-22 -205 -2 -16 -9 -81 -14 -144 -11 -130 -3 -151 57 -151 35 0 57 22 88 90 8
19 20 42 26 50 5 8 16 31 24 50 8 19 21 46 29 60 27 45 117 238 117 248 0 6 3
12 8 14 4 2 18 28 32 58 13 30 29 62 35 70 6 8 20 35 30 60 11 25 25 51 32 58
7 7 13 18 13 23 0 10 14 39 136 279 48 96 91 177 94 180 4 3 19 30 34 60 15
30 42 80 59 111 53 94 127 229 170 309 22 41 46 82 53 91 8 8 14 19 14 23 0 9
59 109 107 181 18 28 33 54 33 59 0 6 8 19 18 30 10 12 34 48 54 81 32 54 37
72 48 175 7 63 13 122 15 130 2 8 6 42 9 75 8 67 11 83 18 105 3 8 13 66 22
129 9 63 17 116 19 117 3 3 169 -10 257 -20 19 -3 71 -7 115 -11 44 -4 89 -9
100 -12 22 -6 128 -17 315 -33 109 -10 173 -17 230 -25 8 -1 29 -5 47 -10 27
-6 30 -10 23 -29 -9 -19 -33 -148 -46 -236 -2 -19 -9 -48 -14 -65 -5 -16 -17
-79 -25 -140 -22 -152 -25 -166 -35 -200 -9 -28 -33 -200 -45 -320 -6 -54 -9
-72 -18 -95 -3 -8 -13 -91 -22 -185 -25 -244 -25 -247 -30 -275 -9 -43 -24
-181 -30 -275 -3 -49 -8 -110 -10 -135 -3 -25 -8 -76 -10 -115 -4 -77 -14
-211 -21 -290 -28 -303 -24 -335 40 -335 45 0 69 24 91 90 10 30 23 62 30 70
6 8 20 38 30 65 10 28 23 57 30 65 7 8 18 33 25 55 7 22 23 60 36 85 12 25 34
70 47 100 14 30 43 93 64 140 22 47 46 101 53 120 7 19 19 42 25 50 7 8 16 26
20 40 7 23 22 57 116 256 16 34 29 65 29 70 0 4 6 15 13 23 8 9 22 39 32 66
10 28 23 57 30 65 7 8 16 26 20 40 4 14 20 53 36 88 36 76 72 155 134 292 26
58 54 112 60 120 7 8 16 26 20 40 4 14 23 59 43 100 19 41 40 86 46 100 5 14
15 32 22 40 6 8 19 38 29 65 10 28 24 57 30 65 6 8 18 31 25 50 7 19 21 46 30
60 10 14 21 36 25 50 4 13 23 54 41 91 18 36 38 77 44 90 5 13 14 31 19 39 5
8 27 53 48 100 22 47 60 127 84 178 l44 94 245 -6 c135 -4 359 -8 499 -11z
m341 -1880 c157 -3 348 -8 425 -11 77 -3 247 -8 378 -11 168 -4 237 -8 237
-17 0 -11 -29 -182 -34 -201 -1 -5 -5 -19 -9 -30 -3 -11 -18 -96 -32 -190 -27
-176 -28 -180 -38 -205 -3 -8 -13 -69 -22 -135 -26 -193 -27 -198 -38 -225 -3
-8 -13 -73 -21 -145 -16 -128 -18 -146 -31 -215 -8 -40 -42 -299 -50 -375 -3
-27 -9 -68 -15 -90 -8 -34 -21 -143 -36 -290 -7 -71 -16 -140 -21 -160 -2 -11
-13 -105 -23 -210 -11 -104 -22 -209 -24 -232 -3 -23 -8 -76 -11 -119 -4 -43
-9 -87 -11 -98 -6 -24 -31 -293 -39 -406 -6 -81 -15 -184 -21 -240 -7 -55 -36
-442 -50 -665 -3 -55 -8 -118 -10 -140 -2 -22 -10 -152 -18 -288 -7 -136 -15
-249 -17 -251 -2 -2 -47 -11 -99 -20 -52 -9 -104 -21 -115 -26 -11 -5 -76 -20
-145 -34 -69 -14 -154 -32 -190 -41 -36 -8 -96 -20 -135 -26 -38 -6 -74 -14
-80 -19 -5 -4 -66 -17 -135 -29 -69 -13 -134 -26 -145 -30 -29 -10 -55 -2 -55
17 0 9 5 60 10 112 5 52 12 120 15 150 9 94 17 164 21 185 3 11 11 79 20 150
24 208 23 229 -10 250 -22 14 -137 36 -266 51 -25 3 -56 7 -70 10 -82 16 -325
24 -540 19 -229 -7 -246 -8 -267 -28 -13 -11 -25 -30 -29 -41 -6 -22 -142
-320 -168 -371 -9 -16 -16 -35 -16 -42 0 -6 -13 -36 -28 -66 -16 -30 -36 -76
-46 -103 -11 -27 -24 -56 -31 -64 -6 -8 -20 -37 -30 -65 -10 -27 -23 -56 -29
-64 -6 -8 -15 -28 -21 -45 l-10 -31 -90 0 c-50 1 -151 4 -225 9 -74 4 -169 9
-210 12 -41 2 -104 6 -140 9 -36 3 -132 10 -214 15 -81 5 -150 11 -152 13 -5
4 26 77 36 87 8 8 95 183 95 192 0 4 7 15 15 25 9 10 26 43 39 73 13 30 27 60
32 66 5 6 51 93 102 193 50 100 106 207 124 239 17 31 35 64 38 72 25 53 50
103 79 155 19 33 60 112 92 175 32 63 62 120 66 125 5 6 21 35 36 65 55 109
135 255 147 270 7 8 19 32 26 54 9 26 23 42 39 48 24 8 72 86 110 178 5 14 14
32 19 40 18 28 91 187 91 197 0 6 8 21 18 34 10 13 24 40 32 59 12 31 100 196
197 369 17 31 43 79 57 106 14 28 41 77 60 110 40 70 95 170 110 202 6 13 14
23 19 23 4 0 7 8 7 19 0 10 7 25 16 32 9 7 27 36 41 64 33 68 69 133 83 150
11 13 45 76 96 175 15 30 34 61 41 68 7 7 13 18 13 24 0 5 12 29 28 52 15 22
36 60 46 84 11 23 22 42 26 42 4 0 13 15 21 33 7 17 21 45 32 60 11 16 29 47
41 70 40 76 89 162 100 177 7 8 19 31 29 50 9 19 35 64 57 100 22 36 48 84 59
106 11 23 24 45 30 48 5 4 22 30 36 59 43 85 81 154 94 168 6 8 22 34 35 59
12 25 40 74 60 110 21 36 47 81 58 100 11 19 26 42 32 50 7 8 15 22 18 31 5
11 17 15 50 13 23 -1 171 -5 328 -9z m-4221 -3150 c-12 -304 -30 -286 251
-241 91 15 179 31 197 37 17 5 46 12 65 14 18 3 98 14 178 26 359 52 320 47
650 70 193 13 270 16 270 9 -1 -3 -25 -50 -55 -105 -31 -55 -67 -122 -81 -150
-15 -27 -42 -77 -60 -110 -19 -33 -47 -87 -64 -120 -16 -33 -59 -114 -95 -180
-36 -66 -77 -142 -91 -170 -13 -27 -40 -77 -58 -110 -35 -60 -40 -71 -70 -135
-14 -31 -27 -54 -58 -110 -4 -8 -26 -51 -48 -95 -23 -44 -70 -134 -105 -200
-35 -66 -67 -127 -71 -135 -11 -26 -45 -94 -60 -120 -7 -14 -22 -43 -33 -65
-10 -22 -34 -71 -54 -110 l-35 -70 -1 100 c-1 115 -8 205 -21 255 -5 19 -19
85 -31 145 -12 61 -25 115 -29 120 -4 6 -17 42 -29 80 -20 63 -78 197 -101
235 -6 8 -21 35 -35 60 -14 25 -41 65 -60 90 -19 25 -46 61 -59 80 -13 19 -39
51 -56 70 -81 89 -133 140 -140 140 -5 0 -11 9 -15 19 -3 11 -14 23 -23 26 -9
3 -44 30 -77 60 -33 30 -64 55 -69 55 -4 0 -31 18 -58 40 -28 22 -57 40 -64
40 -8 0 -14 4 -14 9 0 4 -26 22 -59 39 -32 18 -64 39 -71 47 -7 8 -17 15 -22
15 -14 0 -98 40 -98 47 0 3 28 3 63 -1 189 -21 188 -21 209 5 10 13 35 56 55
94 46 89 86 164 129 240 18 33 43 80 55 105 24 50 50 92 54 88 2 -2 -1 -106
-6 -233z m-1801 -319 c17 -4 44 -8 60 -10 15 -2 72 -11 127 -19 55 -9 120 -19
145 -22 25 -4 50 -8 55 -9 6 -1 24 -7 40 -13 17 -6 68 -19 115 -28 47 -10 105
-26 130 -35 25 -10 79 -29 120 -42 120 -40 194 -70 211 -84 8 -8 22 -14 30
-15 8 0 34 -11 59 -24 25 -13 72 -37 105 -53 34 -17 67 -37 74 -46 7 -9 19
-16 25 -16 7 0 21 -9 33 -19 11 -10 33 -26 50 -34 35 -19 138 -100 173 -137
14 -15 30 -29 36 -31 11 -4 128 -136 154 -175 8 -12 34 -49 57 -83 140 -204
221 -491 220 -781 0 -83 -4 -173 -9 -198 -5 -26 -17 -95 -28 -154 -18 -104
-28 -142 -84 -313 -15 -44 -33 -101 -40 -127 -8 -27 -23 -67 -34 -90 -11 -24
-27 -63 -36 -88 -10 -25 -23 -54 -30 -65 -7 -11 -19 -37 -25 -58 -7 -20 -18
-43 -24 -50 -7 -6 -24 -37 -40 -67 -63 -126 -162 -294 -204 -345 -5 -5 -20
-26 -33 -45 -13 -19 -29 -40 -35 -46 -5 -7 -19 -24 -30 -40 -20 -28 -114 -145
-124 -154 -4 -3 -34 -37 -69 -77 -117 -134 -344 -352 -485 -465 -23 -18 -58
-48 -78 -65 -20 -18 -41 -33 -46 -33 -5 0 -23 -13 -39 -30 -16 -16 -34 -30
-41 -30 -6 0 -24 -13 -40 -30 -15 -16 -33 -30 -40 -30 -6 0 -13 -3 -15 -7 -3
-9 -129 -96 -181 -127 -17 -10 -42 -27 -56 -37 -13 -10 -28 -19 -34 -19 -6 0
-18 -6 -26 -14 -9 -8 -45 -29 -81 -47 -36 -18 -67 -36 -70 -40 -3 -5 -26 -18
-50 -29 -25 -12 -65 -32 -90 -45 -25 -13 -51 -24 -58 -24 -7 -1 -25 -10 -40
-20 -15 -11 -52 -28 -82 -37 -30 -9 -60 -21 -66 -26 -15 -11 -195 -76 -264
-94 -30 -8 -68 -21 -85 -28 -16 -8 -70 -22 -120 -31 -49 -9 -99 -21 -110 -25
-26 -12 -171 -37 -255 -45 -36 -4 -72 -9 -80 -12 -26 -10 -174 -21 -395 -28
-308 -11 -400 -15 -537 -21 -165 -8 -164 -8 -134 59 8 18 22 66 31 107 10 41
23 89 30 105 7 17 23 68 35 114 12 46 26 91 30 100 5 9 21 61 35 116 15 55 31
105 35 110 4 6 13 33 19 60 14 58 63 212 96 305 30 83 70 206 95 293 11 37 24
75 29 85 6 9 23 60 40 112 39 125 79 240 90 265 5 11 17 45 26 75 10 30 23 64
29 75 7 11 18 43 25 70 7 28 20 68 31 90 10 22 27 67 38 100 38 115 84 240 98
272 8 18 23 59 34 92 10 32 23 67 29 77 6 11 20 44 30 74 49 138 83 225 89
235 5 5 16 35 26 65 11 30 22 60 26 65 4 6 21 48 38 95 33 92 74 197 96 245 8
17 22 53 32 80 10 28 21 55 26 61 4 6 17 37 28 68 10 31 26 69 34 84 8 15 23
50 32 77 10 28 23 57 29 65 17 21 45 114 45 147 0 37 -10 50 -40 57 -22 6
-186 -21 -249 -40 -24 -7 -24 -6 -17 37 5 24 10 58 12 74 2 17 6 41 10 55 3
14 17 95 30 180 26 174 29 189 37 210 3 8 10 53 16 100 12 93 16 122 27 190 4
25 7 48 6 53 -3 13 39 24 138 37 52 6 109 16 125 21 17 5 71 11 120 15 50 3
92 8 94 9 5 6 673 -3 709 -9z m5026 -1132 l58 -7 -6 -61 c-3 -33 -8 -90 -11
-126 -3 -36 -8 -78 -10 -95 -2 -16 -7 -59 -11 -95 -3 -36 -8 -76 -11 -90 -2
-14 -7 -46 -10 -72 -5 -40 -9 -48 -27 -49 -31 -2 -140 -6 -331 -13 -93 -3
-224 -9 -290 -12 -102 -6 -118 -5 -108 7 6 8 11 16 11 19 0 3 7 22 16 44 9 21
16 42 16 46 0 4 6 13 13 19 8 6 19 30 26 53 7 24 23 63 36 88 34 66 71 148 93
205 11 28 32 74 47 103 l26 52 207 -4 c114 -3 233 -8 266 -12z m4051 -831 c-4
-10 -21 -54 -36 -97 -16 -44 -33 -84 -38 -90 -5 -6 -15 -34 -22 -61 -6 -28
-21 -69 -31 -92 -18 -38 -32 -74 -100 -263 -12 -36 -29 -71 -35 -78 -7 -7 -13
-19 -13 -25 0 -7 -5 -29 -10 -49 l-11 -37 -347 -4 c-191 -3 -405 -7 -477 -10
-345 -14 -414 -17 -460 -22 -27 -2 -96 -7 -153 -11 -120 -7 -141 -20 -161 -94
-7 -25 -20 -63 -30 -85 -10 -22 -26 -67 -35 -100 -10 -33 -24 -73 -31 -90 -8
-16 -23 -66 -35 -110 -11 -44 -25 -89 -30 -100 -13 -29 -60 -230 -60 -258 0
-41 29 -57 90 -52 49 4 255 20 395 31 65 5 427 14 671 18 l191 2 -28 -90 c-42
-139 -69 -218 -84 -253 -8 -18 -22 -60 -31 -95 -8 -35 -22 -74 -30 -88 -7 -14
-22 -56 -33 -95 -11 -38 -31 -101 -44 -140 l-25 -70 -38 1 c-356 11 -844 -4
-1044 -30 -14 -2 -56 -7 -95 -10 -158 -15 -169 -18 -197 -44 -16 -14 -28 -32
-28 -39 0 -7 -4 -21 -8 -31 -40 -80 -54 -115 -72 -166 -11 -32 -24 -64 -29
-70 -5 -6 -17 -40 -26 -76 -10 -36 -23 -74 -30 -85 -7 -11 -22 -65 -35 -120
-12 -55 -26 -104 -30 -110 -4 -5 -11 -33 -15 -60 -5 -44 -3 -53 15 -70 19 -17
36 -20 109 -19 47 0 120 3 161 6 232 20 427 27 878 35 l373 6 -7 -29 c-3 -16
-17 -56 -30 -89 -12 -33 -28 -80 -34 -105 -7 -25 -18 -58 -25 -75 -8 -16 -23
-64 -35 -105 -12 -41 -25 -79 -29 -85 -5 -5 -16 -39 -25 -75 -10 -36 -24 -78
-31 -95 -8 -16 -23 -62 -34 -100 l-20 -70 -368 -2 c-356 -2 -512 -5 -903 -18
-186 -7 -467 -21 -570 -29 -76 -6 -340 -23 -475 -31 -44 -2 -97 -7 -117 -11
-43 -7 -45 -2 -23 53 8 21 24 76 35 123 12 47 25 90 29 95 5 6 16 44 26 85 10
41 23 89 31 105 7 17 22 67 34 113 11 46 25 91 30 100 5 9 18 55 30 102 12 47
26 90 30 95 5 6 18 47 29 93 11 46 27 97 35 115 9 18 23 64 32 102 9 39 23 81
29 95 7 14 22 61 34 105 12 43 26 84 30 90 4 5 16 42 26 80 9 39 23 79 29 90
7 11 21 52 31 90 10 39 24 81 31 95 7 14 24 65 38 114 14 48 30 93 34 100 5 6
15 36 22 66 7 30 21 73 31 95 11 23 28 71 39 109 10 37 23 73 29 80 5 6 15 34
22 61 6 28 20 68 30 90 19 43 52 135 99 279 16 48 34 93 39 100 5 6 12 27 16
46 4 19 18 58 31 86 13 28 24 56 24 61 0 6 14 44 31 84 16 41 39 101 49 134
43 133 30 145 -167 145 -87 0 -143 4 -143 10 0 5 11 38 24 72 12 35 29 88 36
118 7 30 18 69 25 85 7 17 23 64 34 105 12 41 28 89 36 105 8 17 23 55 34 85
39 110 64 175 68 180 3 3 248 5 546 6 298 1 614 4 702 7 88 4 293 10 455 13
162 4 299 9 304 12 5 3 52 6 105 8 53 2 141 5 196 9 118 6 213 12 390 21 72 3
132 8 134 10 12 11 22 2 16 -13z m-3262 -113 c-3 -14 -14 -45 -25 -70 -20 -46
-49 -123 -97 -261 -15 -43 -32 -83 -38 -90 -6 -8 -14 -30 -18 -49 -4 -19 -16
-55 -27 -80 -11 -25 -31 -76 -44 -114 -13 -38 -27 -74 -32 -80 -5 -6 -14 -31
-21 -56 -7 -25 -24 -70 -38 -100 l-25 -56 -217 -1 c-469 -3 -1244 -26 -1311
-38 -14 -3 -61 -7 -105 -10 -199 -14 -218 -21 -229 -77 -3 -18 -15 -51 -25
-73 -11 -22 -29 -70 -40 -107 -11 -36 -24 -75 -30 -85 -6 -10 -22 -61 -37
-113 -14 -52 -30 -99 -34 -105 -4 -5 -15 -44 -24 -85 -10 -41 -23 -88 -31
-105 -15 -33 -54 -210 -53 -237 1 -10 9 -25 19 -34 16 -14 32 -15 136 -5 194
18 378 31 553 37 69 2 297 7 507 11 l382 6 -25 -83 c-13 -45 -27 -87 -32 -94
-5 -6 -17 -42 -27 -81 -10 -38 -24 -81 -31 -95 -8 -14 -25 -65 -39 -114 -13
-48 -29 -93 -33 -100 -5 -6 -15 -36 -22 -66 -6 -30 -20 -73 -30 -95 -10 -22
-26 -67 -35 -100 -9 -33 -23 -73 -30 -90 -7 -16 -16 -41 -19 -55 l-5 -25 -388
0 c-213 0 -426 -3 -473 -7 -47 -4 -125 -10 -175 -13 -109 -7 -144 -10 -355
-25 -91 -7 -169 -17 -174 -21 -6 -5 -17 -9 -26 -9 -26 0 -64 -50 -85 -110 -10
-30 -24 -64 -31 -75 -7 -11 -23 -49 -35 -85 -12 -36 -28 -76 -35 -90 -7 -14
-22 -55 -33 -92 -11 -36 -24 -75 -30 -85 -6 -10 -20 -54 -31 -98 -11 -44 -25
-89 -30 -100 -13 -28 -40 -171 -40 -210 0 -45 29 -72 71 -67 4 1 47 4 95 7 49
3 121 7 159 10 39 3 126 8 195 10 486 21 624 26 938 31 402 7 369 16 328 -89
-14 -34 -34 -96 -46 -137 -12 -41 -26 -79 -30 -85 -4 -5 -15 -39 -24 -75 -9
-35 -23 -77 -31 -93 -8 -16 -23 -62 -35 -104 -11 -41 -26 -87 -34 -101 -7 -15
-19 -52 -26 -82 -7 -30 -19 -64 -26 -75 -7 -11 -20 -50 -30 -88 l-16 -67 -437
-1 c-390 -1 -886 -11 -1106 -23 -119 -6 -303 -15 -455 -21 -74 -3 -146 -7
-160 -10 -14 -2 -104 -7 -200 -11 -96 -3 -179 -8 -183 -11 -7 -4 -25 -6 -172
-17 -38 -3 -105 -8 -147 -12 -43 -3 -78 -3 -78 1 0 13 31 130 39 150 5 11 21
67 36 124 15 57 31 111 35 120 5 9 16 48 25 86 9 39 23 84 30 100 8 17 23 68
35 115 12 46 25 89 29 95 5 5 16 43 25 83 8 41 22 88 30 105 7 18 21 61 30 97
10 36 23 79 31 95 7 17 23 68 35 115 12 47 28 99 35 115 7 17 16 41 20 55 11
44 87 283 106 335 22 62 53 157 83 255 12 41 28 84 34 95 6 11 21 56 32 100
12 44 27 93 35 110 8 16 19 50 25 75 7 25 18 59 25 75 8 17 28 71 44 120 61
185 81 240 90 257 6 9 17 45 26 80 9 34 22 72 29 83 7 11 21 47 30 80 10 33
24 74 31 90 8 17 26 66 40 109 14 44 29 84 33 90 5 6 14 31 21 56 7 25 21 63
31 85 10 22 26 65 35 95 10 30 22 64 28 75 6 11 24 56 39 100 16 44 38 104 49
134 20 57 24 98 11 119 -15 22 -63 28 -224 28 -87 -1 -158 3 -158 8 0 16 31
128 40 144 6 10 19 55 31 102 11 47 24 90 29 95 5 6 20 57 35 113 14 57 30
111 35 120 5 9 19 53 31 97 12 44 24 85 28 90 4 6 15 44 25 86 l18 75 617 1
c595 1 1539 17 1631 28 25 3 92 8 150 10 58 3 124 7 148 9 24 2 42 -1 42 -7 0
-22 34 -47 64 -47 29 0 107 15 311 60 50 11 154 22 238 26 81 4 149 10 152 13
2 4 19 7 39 7 33 0 35 -2 29 -26z m47 -1058 c0 -4 -6 -16 -14 -27 -7 -11 -17
-36 -21 -55 -4 -19 -17 -57 -30 -85 -12 -27 -30 -77 -39 -110 -10 -33 -24 -73
-31 -90 -8 -16 -26 -68 -41 -115 -14 -47 -30 -89 -34 -95 -3 -5 -15 -39 -25
-75 -10 -36 -22 -69 -26 -75 -3 -5 -19 -50 -34 -100 -15 -49 -31 -94 -35 -100
-4 -5 -11 -26 -15 -45 -4 -19 -17 -62 -30 -95 -32 -84 -82 -236 -109 -330 -12
-44 -28 -89 -33 -100 -6 -11 -19 -49 -29 -85 -9 -36 -23 -76 -30 -90 -7 -14
-20 -54 -29 -90 -9 -36 -23 -78 -30 -95 -8 -16 -21 -59 -30 -95 -9 -36 -23
-78 -30 -95 -8 -16 -23 -66 -35 -109 -12 -44 -26 -87 -31 -95 -4 -9 -20 -61
-35 -116 -14 -55 -29 -104 -33 -110 -4 -5 -18 -50 -31 -100 -12 -49 -26 -94
-30 -100 -4 -5 -15 -44 -25 -85 -10 -41 -23 -88 -31 -105 -7 -16 -22 -68 -34
-115 -12 -46 -25 -89 -30 -95 -4 -5 -11 -26 -15 -45 -12 -64 -16 -70 -41 -70
-13 0 -24 3 -24 6 0 19 101 338 120 379 17 38 40 129 40 160 0 19 -8 39 -20
50 -18 17 -53 17 -647 10 -345 -4 -631 -9 -635 -12 -4 -2 -92 -6 -195 -9 -104
-3 -218 -6 -255 -8 -78 -4 -79 -2 -49 79 11 28 32 86 48 130 22 62 33 80 48
81 41 3 162 14 210 19 154 16 263 19 802 20 576 1 593 1 607 20 8 11 17 36 21
55 4 19 12 44 19 55 7 11 20 52 30 90 10 39 24 79 31 90 7 11 22 56 34 100 12
44 26 84 31 90 4 5 16 39 25 75 9 36 22 74 29 85 7 11 21 52 30 90 10 39 24
84 32 100 8 17 25 68 39 115 13 47 56 177 95 290 39 113 80 237 91 275 11 39
25 74 30 80 15 15 10 61 -10 86 l-19 24 -584 -1 c-508 -1 -807 -6 -940 -18
-30 -2 -38 0 -38 13 0 22 26 104 39 127 7 11 19 44 29 74 l17 55 65 7 c36 4
173 12 305 18 132 6 276 13 320 15 83 4 533 13 906 19 160 3 221 7 237 17 12
8 22 18 22 22 0 5 6 23 14 40 8 18 27 67 42 110 23 67 30 77 50 77 13 0 24 -3
24 -8z m-3840 -308 c0 -3 -6 -18 -14 -32 -8 -15 -26 -61 -39 -102 -41 -125
-74 -215 -85 -235 -6 -11 -20 -54 -32 -95 -12 -41 -28 -88 -35 -105 -8 -16
-21 -57 -31 -90 -9 -33 -20 -64 -24 -70 -5 -5 -18 -44 -30 -85 -13 -41 -26
-79 -30 -85 -5 -5 -20 -48 -34 -95 -14 -47 -44 -137 -66 -200 -22 -63 -50
-149 -61 -190 -11 -41 -26 -84 -33 -95 -7 -11 -20 -51 -30 -90 -9 -38 -23 -79
-30 -90 -7 -11 -20 -51 -30 -90 -10 -38 -24 -79 -31 -90 -6 -11 -20 -51 -29
-90 -10 -38 -23 -83 -30 -100 -7 -16 -31 -88 -54 -160 -22 -71 -49 -159 -61
-195 -24 -74 -67 -213 -106 -345 -15 -49 -30 -94 -34 -100 -5 -5 -16 -44 -26
-85 -10 -41 -24 -86 -31 -100 -7 -14 -20 -59 -30 -100 -9 -41 -23 -86 -30
-100 -7 -14 -20 -59 -30 -100 -28 -125 -29 -126 -131 -139 -48 -6 -101 -12
-118 -12 -16 0 -41 -4 -55 -9 -27 -10 -33 -10 -250 -35 -80 -9 -156 -20 -170
-25 -27 -10 -32 -11 -245 -35 -77 -9 -153 -20 -170 -25 -34 -10 -48 -12 -300
-41 -55 -6 -107 -13 -115 -16 -25 -10 -25 -10 -280 -44 -80 -10 -178 -24 -218
-30 -40 -7 -74 -10 -77 -8 -2 3 -11 58 -20 124 -8 66 -17 134 -20 150 -2 17
-17 127 -34 245 -17 118 -37 256 -45 305 -8 50 -19 140 -26 200 -6 61 -14 117
-17 125 -11 28 -18 76 -38 260 -9 80 -21 154 -25 165 -9 21 -30 170 -30 215
l0 27 123 11 c67 5 158 17 202 25 44 8 87 14 95 15 72 3 541 128 595 159 11 6
47 19 79 28 33 10 73 26 90 36 17 10 38 19 47 19 20 0 367 173 445 222 34 21
65 38 71 38 5 0 18 8 29 18 10 10 39 29 64 42 25 14 48 30 52 36 4 7 19 15 33
18 14 4 25 11 25 16 0 6 6 10 14 10 8 0 21 7 30 15 24 24 98 79 129 94 15 8
27 18 27 22 0 4 16 17 35 29 20 12 41 27 48 34 6 6 32 27 57 46 65 50 80 63
106 85 12 12 41 36 64 55 160 134 499 475 559 563 8 12 18 24 21 27 3 3 19 23
35 45 16 22 36 48 45 57 31 35 40 47 40 57 0 6 9 16 20 23 11 7 20 16 20 21 0
4 7 19 16 32 16 24 20 25 140 25 68 0 124 -3 124 -6z m-3849 -1962 c0 -15 2
-34 4 -42 1 -8 10 -82 20 -165 9 -82 21 -163 25 -180 5 -16 12 -50 15 -75 3
-25 7 -63 10 -85 3 -22 12 -96 20 -163 8 -68 18 -128 21 -133 3 -5 8 -31 10
-57 3 -26 7 -58 9 -72 3 -14 12 -90 21 -170 8 -80 19 -152 24 -160 4 -9 17
-99 29 -200 12 -102 26 -201 31 -220 5 -19 11 -51 14 -71 l4 -36 -131 -16
c-73 -9 -159 -19 -192 -22 -33 -4 -71 -10 -85 -15 -14 -5 -43 -11 -65 -14 -22
-2 -86 -10 -143 -17 -61 -7 -106 -9 -111 -3 -8 9 -34 194 -47 334 -3 36 -8 72
-11 80 -10 26 -12 36 -28 166 -3 22 -10 84 -16 139 -5 55 -14 107 -18 116 -5
8 -12 44 -16 80 -4 35 -9 73 -11 84 -2 11 -9 70 -15 130 -6 61 -13 117 -16
125 -8 20 -11 37 -18 85 -3 22 -17 121 -30 220 -14 99 -31 219 -38 266 l-13
86 111 8 c60 4 173 9 250 11 76 3 140 6 141 7 1 1 57 3 123 4 l121 2 1 -27z
m2607 -1879 c-20 -42 -29 -70 -47 -145 -26 -107 -26 -120 -2 -143 18 -15 34
-16 158 -10 76 4 143 10 148 13 6 4 21 7 35 8 14 1 66 4 115 7 50 3 124 9 165
12 41 4 181 13 310 21 129 7 258 16 285 18 28 3 111 7 185 11 74 3 167 7 205
10 189 13 1309 45 1301 38 -2 -2 -25 -8 -52 -12 -27 -5 -59 -12 -71 -14 -12
-3 -50 -8 -84 -12 -35 -4 -66 -8 -69 -10 -3 -1 -57 -8 -120 -14 -63 -7 -122
-15 -130 -18 -27 -11 -45 -13 -300 -43 -102 -12 -194 -25 -205 -30 -11 -5 -45
-12 -75 -15 -81 -8 -331 -42 -360 -49 -14 -3 -106 -15 -205 -27 -99 -12 -187
-24 -195 -27 -25 -9 -48 -12 -235 -37 -99 -13 -189 -25 -201 -28 -12 -3 -45
-8 -74 -12 -29 -4 -61 -8 -70 -10 -9 -2 -70 -9 -136 -16 -65 -6 -123 -15 -129
-19 -5 -4 -37 -10 -70 -14 -105 -11 -391 -50 -445 -61 -58 -11 -69 -12 -230
-30 -85 -9 -162 -20 -170 -24 -8 -5 -103 -18 -210 -31 -107 -12 -204 -26 -215
-31 -11 -4 -42 -11 -70 -14 -112 -13 -342 -43 -365 -49 -53 -11 -87 -16 -157
-22 -66 -6 -72 -5 -71 12 0 10 -3 39 -6 64 -3 25 -11 90 -17 145 -6 55 -13
107 -16 115 -8 18 -8 20 -24 133 -6 48 -9 90 -6 93 3 3 68 14 145 24 77 10
144 20 149 23 4 2 35 8 68 11 33 4 87 11 120 16 33 5 92 12 130 16 39 3 77 10
85 14 8 4 38 10 65 13 143 15 332 39 345 44 25 10 43 12 305 43 99 12 187 24
195 27 20 8 44 12 165 28 121 16 157 17 153 8z m2899 -159 c-3 -3 -12 -4 -19
-1 -8 3 -5 6 6 6 11 1 17 -2 13 -5z"/>
<path d="M10263 10775 c-12 -8 -33 -39 -47 -68 -15 -28 -42 -77 -60 -107 -19
-30 -46 -77 -60 -105 -39 -73 -77 -139 -84 -145 -4 -3 -20 -31 -37 -64 -75
-145 -191 -362 -213 -396 -9 -14 -26 -46 -38 -71 -12 -26 -27 -50 -33 -53 -6
-4 -11 -14 -11 -22 0 -8 -12 -33 -27 -57 -14 -23 -52 -92 -83 -154 -31 -62
-61 -118 -67 -125 -6 -7 -14 -24 -18 -38 -4 -14 -10 -27 -14 -30 -9 -7 -22
-32 -83 -150 -29 -58 -55 -107 -58 -110 -16 -16 -30 -54 -30 -82 0 -65 -10
-62 322 -69 167 -4 346 -10 399 -14 134 -10 125 -27 154 285 8 85 17 175 20
200 2 25 7 68 10 95 3 28 9 70 15 95 5 25 17 117 26 205 17 170 22 215 31 255
3 14 13 93 24 175 10 83 21 168 24 190 3 22 8 60 11 85 7 62 9 73 15 85 4 6
10 43 13 83 6 59 4 78 -9 98 -18 28 -59 32 -92 9z"/>
<path d="M4208 7893 c-38 -42 -26 -64 107 -194 47 -46 90 -92 95 -101 7 -12 1
-35 -24 -85 -32 -66 -76 -159 -129 -273 -14 -30 -48 -111 -76 -180 -29 -69
-58 -136 -65 -150 -7 -14 -21 -50 -31 -80 -10 -30 -26 -71 -36 -90 -11 -19
-19 -40 -19 -47 0 -7 -9 -32 -20 -56 -19 -42 -58 -145 -107 -287 -14 -41 -29
-79 -33 -85 -4 -5 -17 -41 -29 -80 -37 -124 -81 -259 -96 -290 -8 -16 -23 -66
-35 -110 -12 -43 -25 -84 -29 -90 -5 -5 -16 -44 -26 -85 -10 -41 -24 -87 -31
-101 -7 -14 -22 -63 -34 -108 -11 -45 -25 -90 -30 -99 -9 -16 -26 -78 -89
-313 -25 -94 -27 -110 -15 -138 12 -29 16 -31 66 -30 53 0 154 18 173 31 6 3
49 16 95 28 47 12 108 32 136 46 28 13 56 24 63 24 14 0 224 100 231 110 3 4
16 11 28 15 13 4 43 20 67 36 24 16 47 29 52 29 6 0 18 9 28 20 10 11 23 20
30 20 12 0 107 69 113 83 2 4 8 7 14 7 6 0 27 15 47 33 20 17 52 43 71 57 101
75 420 394 420 420 0 3 13 21 28 40 25 30 57 76 97 139 73 113 186 346 200
409 4 18 18 67 31 108 32 101 58 279 57 389 -1 124 -33 268 -80 362 -21 43
-41 80 -44 83 -3 3 -14 20 -25 39 -10 19 -30 46 -44 61 -14 15 -32 36 -41 46
-65 78 -234 199 -369 266 -97 48 -236 103 -278 111 -19 4 -48 13 -65 21 -38
17 -178 44 -268 52 -55 6 -66 4 -81 -13z m704 -583 c80 -62 140 -131 168 -193
10 -23 26 -60 36 -82 23 -51 28 -235 9 -315 -31 -128 -65 -247 -78 -275 -8
-16 -23 -50 -32 -75 -9 -25 -20 -47 -23 -50 -4 -3 -19 -30 -35 -60 -15 -30
-41 -75 -57 -100 -17 -25 -38 -58 -48 -74 -46 -77 -260 -305 -382 -406 -23
-19 -47 -40 -54 -45 -6 -6 -33 -26 -60 -45 -26 -19 -61 -44 -76 -55 -61 -44
-148 -100 -200 -127 -30 -16 -67 -37 -82 -46 -28 -17 -48 -11 -31 10 6 7 18
47 28 88 10 41 24 86 31 100 7 14 20 55 29 90 9 36 23 79 30 95 8 17 21 57 31
90 9 33 22 71 30 85 7 14 24 65 38 114 14 48 30 93 35 100 5 6 16 38 26 71 9
33 23 71 30 85 8 14 21 50 31 80 9 30 23 66 30 80 7 14 22 50 33 80 10 30 26
69 35 85 9 17 16 36 16 43 0 7 13 41 29 75 16 34 36 83 45 109 8 26 25 64 36
85 11 21 20 41 20 46 0 4 13 36 28 70 16 34 35 78 42 97 7 19 19 42 27 51 7 8
13 20 13 25 0 5 19 50 42 100 l42 90 62 -31 c35 -18 82 -47 106 -65z"/>
</g>
</svg>
